<svg xmlns="http://www.w3.org/2000/svg" xmlns:xlink="http://www.w3.org/1999/xlink" width="25" height="25"><defs><path id="a" d="M129.5 42a12.51 12.51 0 0 1 0-25c6.89 0 12.5 5.6 12.5 12.5S136.39 42 129.5 42m0-23.92a11.43 11.43 0 0 0 0 22.84c6.3 0 11.42-5.12 11.42-11.42s-5.12-11.42-11.43-11.42"/><path id="b" d="M125.8 34.06l-.85-.86 8.25-8.25.86.85z"/><path id="c" d="M133.2 34.06l-8.25-8.26.85-.85 8.26 8.25z"/></defs><use fill="#fff" xlink:href="#a" transform="translate(-117 -17)"/><use fill="#fff" xlink:href="#b" transform="translate(-117 -17)"/><use fill="#fff" xlink:href="#c" transform="translate(-117 -17)"/></svg>