<svg xmlns="http://www.w3.org/2000/svg" xmlns:xlink="http://www.w3.org/1999/xlink" width="37.97" height="37.97" viewBox="0 0 37.97 37.97"><defs><path id="eoiia" d="M328.49 560.52a20.26 20.26 0 0 0-4.1-6.05 18.76 18.76 0 0 0-5.94-3.99 20 20 0 0 0-7.4-1.48c-3.89 0-7.65 1.14-10.61 3.2-1.03.68-1.94 1.48-2.85 2.27a19.05 19.05 0 0 0-5.59 13.46 19.05 19.05 0 0 0 19.04 19.04c5.25 0 9.92-2.05 13.34-5.59 1.71-1.6 3.08-3.76 4.1-6.04a20 20 0 0 0 1.49-7.41 20 20 0 0 0-1.48-7.41m-10.6 2.05l-5.37 5.47 5.36 5.36a1.2 1.2 0 0 1 0 1.48c-.23.12-.45.23-.68.23-.34 0-.57-.11-.8-.23l-5.36-5.36-5.47 5.36a1.2 1.2 0 0 1-1.48 0 1.2 1.2 0 0 1 0-1.48l5.47-5.36-5.47-5.47a1.2 1.2 0 0 1 0-1.48c.22-.23.45-.23.8-.23.22 0 .45 0 .68.23l5.47 5.47 5.36-5.47a1.2 1.2 0 0 1 1.48 0c.23.22.23.45.23.68 0 .34 0 .57-.23.8"/></defs><g><g clip-path="url(#clip-5A832768-1382-4C97-B311-757123FC30DE)" transform="translate(-292 -549)"><use fill="#fdfdfd" xlink:href="#eoiia"/></g></g></svg>