<svg xmlns="http://www.w3.org/2000/svg" xmlns:xlink="http://www.w3.org/1999/xlink" width="34.89" height="32.76"><defs><path id="a" d="M300.83 441.5h10.62v-1.56h-10.62z"/><path id="b" d="M300.83 431.36h20.48v-1.56h-20.48z"/><path id="c" d="M300.83 436.82h17.45v-1.56h-17.45z"/><path id="d" d="M319.68 454.76a.64.64 0 0 1-.5-.22l-5.72-5.94h-13.9a5.64 5.64 0 0 1-5.56-5.73v-15.14a5.65 5.65 0 0 1 5.56-5.73h23.83c3.03 0 5.5 2.59 5.5 5.73v15.14a5.63 5.63 0 0 1-5.5 5.73h-2.97v5.42c0 .3-.2.58-.43.7-.1.04-.2.04-.3.04zm-20.12-31.24a4.14 4.14 0 0 0-4.1 4.2v15.15a4.16 4.16 0 0 0 4.1 4.23h14.17c.21 0 .4.09.5.21l4.72 4.88v-4.33c0-.42.35-.76.73-.76h3.7c2.22 0 4.04-1.91 4.04-4.23v-15.14c0-2.33-1.82-4.2-4.03-4.2z"/></defs><use fill="#fff" xlink:href="#a" transform="translate(-294 -422)"/><use fill="#fff" xlink:href="#b" transform="translate(-294 -422)"/><use fill="#fff" xlink:href="#c" transform="translate(-294 -422)"/><use fill="#fff" xlink:href="#d" transform="translate(-294 -422)"/></svg>