<svg xmlns="http://www.w3.org/2000/svg" xmlns:xlink="http://www.w3.org/1999/xlink" width="35.03" height="24.7" viewBox="0 0 35.03 24.7"><defs><path id="ypdka" d="M312.61 331.44c-.44 0-.85-.2-1.16-.52l-16.15-16.6a.83.83 0 0 1-.2-.56c0-.41.33-.76.73-.76h33.58c.4 0 .72.34.72.75 0 .22-.07.4-.2.56l-16.14 16.61c-.32.33-.72.52-1.18.52zm-15.03-16.93l14.9 15.34c.07.08.2.08.28 0l14.9-15.34z"/><path id="ypdkb" d="M296.37 337.15a.79.79 0 0 1-.52-.2.77.77 0 0 1 0-1.08l1.03-1.07a.72.72 0 0 1 1.03 0c.3.29.3.78 0 1.07l-1.03 1.07a.78.78 0 0 1-.51.21m3.1-3.22a.7.7 0 0 1-.52-.2.79.79 0 0 1 0-1.08l1.04-1.07a.73.73 0 0 1 1.05 0c.28.29.28.78 0 1.07l-1.05 1.07a.67.67 0 0 1-.51.21m3.1-3.18a.67.67 0 0 1-.5-.24.76.76 0 0 1 0-1.06l1.03-1.06a.7.7 0 0 1 1.03 0c.3.3.3.75 0 1.06l-1.03 1.06a.72.72 0 0 1-.53.24m3.12-3.22a.81.81 0 0 1-.52-.2.76.76 0 0 1 0-1.08l1.03-1.07a.73.73 0 0 1 1.04 0c.28.29.28.78 0 1.07l-1.04 1.07a.77.77 0 0 1-.5.21"/><path id="ypdkc" d="M329.03 337.32a.7.7 0 0 1-.53-.23l-1.03-1.08a.77.77 0 0 1 0-1.06c.29-.3.75-.3 1.03 0l1.04 1.06c.28.3.28.79 0 1.08a.65.65 0 0 1-.5.23m-3.12-3.2a.71.71 0 0 1-.52-.23l-1.03-1.06a.76.76 0 0 1 0-1.07c.28-.3.74-.3 1.03 0l1.03 1.07c.3.3.3.75 0 1.06a.72.72 0 0 1-.51.22m-3.12-3.22a.75.75 0 0 1-.51-.2l-1.04-1.08a.79.79 0 0 1 0-1.07.73.73 0 0 1 1.04 0l1.04 1.07c.28.3.28.79 0 1.08a.78.78 0 0 1-.53.2m-3.1-3.18a.7.7 0 0 1-.53-.24l-1.03-1.07a.75.75 0 0 1 0-1.06.7.7 0 0 1 1.03 0l1.04 1.06c.28.3.28.78 0 1.07a.66.66 0 0 1-.5.24"/><path id="ypdkd" d="M328.25 337.7h-31.28a1.9 1.9 0 0 1-1.87-1.94v-22c0-.41.33-.75.73-.75.4 0 .72.34.72.75v22c0 .23.2.45.42.45h31.28c.23 0 .43-.22.43-.45v-22c0-.41.33-.75.73-.75.4 0 .72.34.72.75v22a1.9 1.9 0 0 1-1.88 1.94"/></defs><g><g transform="translate(-295.1 -313)"><g><use fill="#fff" xlink:href="#ypdka"/></g><g><use fill="#fff" xlink:href="#ypdkb"/></g><g><use fill="#fff" xlink:href="#ypdkc"/></g><g><use fill="#fff" xlink:href="#ypdkd"/></g></g></g></svg>