<svg xmlns="http://www.w3.org/2000/svg" xmlns:xlink="http://www.w3.org/1999/xlink" viewBox="0 0 39.54 39"><defs><path id="a" d="M1163.6 4062h-29.66a4.91 4.91 0 0 0-4.94 4.88v29.24a4.91 4.91 0 0 0 4.94 4.88h14.83v-13.4h-4.94v-6.1h4.94v-4.88a7.36 7.36 0 0 1 7.41-7.3h4.95v6.09h-2.47c-1.37 0-2.48-.13-2.48 1.22v4.87h6.18l-2.47 6.1h-3.7v13.4h7.4a4.91 4.91 0 0 0 4.95-4.88v-29.24a4.91 4.91 0 0 0-4.94-4.88"/></defs><g clip-path="url(#clip-C148F9E6-F926-40DE-AF6E-A6F727A0CA68)" opacity=".94" transform="translate(-1129 -4062)"><use fill="#fff" xlink:href="#a"/></g></svg>