<svg xmlns="http://www.w3.org/2000/svg" xmlns:xlink="http://www.w3.org/1999/xlink" width="39.54" height="39"><defs><path id="a" d="M1312.64 4062h-14.82a12.27 12.27 0 0 0-12.36 12.19v14.62c0 6.73 5.53 12.19 12.36 12.19h14.82c6.83 0 12.36-5.46 12.36-12.19v-14.62c0-6.73-5.53-12.19-12.36-12.19zm8.65 26.81a8.6 8.6 0 0 1-8.65 8.53h-14.82a8.6 8.6 0 0 1-8.65-8.53v-14.62a8.6 8.6 0 0 1 8.65-8.53h14.82a8.6 8.6 0 0 1 8.65 8.53z"/><path id="b" d="M1305.23 4071.75a9.82 9.82 0 0 0-9.89 9.75 9.82 9.82 0 0 0 9.89 9.75 9.82 9.82 0 0 0 9.88-9.75 9.82 9.82 0 0 0-9.88-9.75zm0 15.84a6.14 6.14 0 0 1-6.18-6.09c0-3.36 2.77-6.1 6.18-6.1 3.4 0 6.17 2.74 6.17 6.1 0 3.36-2.77 6.1-6.17 6.1z"/></defs><g clip-path="url(#clip-E050C152-C64F-4A9B-A0EB-2990205F0701)" opacity=".94" transform="translate(-1285.46 -4062)"><use fill="#fff" xlink:href="#a"/></g><use fill="#fff" xlink:href="#b" opacity=".94" transform="translate(-1285.46 -4062)"/></svg>