<svg xmlns="http://www.w3.org/2000/svg" xmlns:xlink="http://www.w3.org/1999/xlink" width="29.72" height="35.5" viewBox="0 0 29.72 35.5"><defs><path id="rw9xa" d="M312.08 509.65a.69.69 0 0 1-.51-.24l-9.58-9.5a14.87 14.87 0 0 1 10.1-25.76c8.19 0 14.85 6.66 14.85 14.86 0 4.19-1.77 8.19-4.9 10.98l-9.44 9.42a.69.69 0 0 1-.52.24m0-34.01a13.34 13.34 0 1 0-9.07 23.16l9.07 9.1 8.95-8.98a13.37 13.37 0 0 0 4.44-9.9c0-7.38-6-13.38-13.38-13.38"/><path id="rw9xb" d="M309.8 488.79h3.04v-1.48h-3.04z"/><path id="rw9xc" d="M309.8 496.94h4.6v-1.49h-4.6z"/><path id="rw9xd" d="M311.35 496.94h1.49v-9.63h-1.49z"/><path id="rw9xe" d="M312.1 484.4c-.72 0-1.28-.57-1.28-1.27 0-.72.56-1.28 1.28-1.28.7 0 1.27.56 1.27 1.28 0 .7-.56 1.27-1.27 1.27"/></defs><g><g transform="translate(-297.23 -474.15)"><g><use fill="#fff" xlink:href="#rw9xa"/></g><g><use fill="#fff" xlink:href="#rw9xb"/></g><g><use fill="#fff" xlink:href="#rw9xc"/></g><g><use fill="#fff" xlink:href="#rw9xd"/></g><g><use fill="#fff" xlink:href="#rw9xe"/></g></g></g></svg>