<svg xmlns="http://www.w3.org/2000/svg" xmlns:xlink="http://www.w3.org/1999/xlink" width="47" height="47"><defs><path id="a" d="M1292.44 66.89A23.46 23.46 0 0 1 1269 43.45a23.46 23.46 0 0 1 46.9 0 23.48 23.48 0 0 1-23.46 23.44m0-44.85a21.44 21.44 0 0 0-21.42 21.41 21.44 21.44 0 0 0 42.87 0c0-11.8-9.63-21.41-21.45-21.41"/><path id="b" d="M1301.45 37.64h-18a1 1 0 0 1 0-2.02h18a1 1 0 0 1 0 2.02"/><path id="c" d="M1301.45 44.46h-18a1 1 0 0 1 0-2.02h18a1 1 0 0 1 0 2.02"/><path id="d" d="M1301.45 51.28h-18a1 1 0 0 1 0-2.02h18a1 1 0 0 1 0 2.02"/></defs><use fill="#fff" xlink:href="#a" opacity=".74" transform="translate(-1269 -20)"/><use fill="#fff" xlink:href="#b" opacity=".74" transform="translate(-1269 -20)"/><use fill="#fff" xlink:href="#c" opacity=".74" transform="translate(-1269 -20)"/><use fill="#fff" xlink:href="#d" opacity=".74" transform="translate(-1269 -20)"/></svg>