<svg xmlns="http://www.w3.org/2000/svg" xmlns:xlink="http://www.w3.org/1999/xlink" x="0px" y="0px" viewBox="0 0 24 24" enable-background="new 0 0 24 24" xml:space="preserve"> <g> <g> <path d="M12,23.6C5.6,23.6,0.4,18.4,0.4,12S5.6,0.4,12,0.4c6.4,0,11.6,5.2,11.6,11.6S18.4,23.6,12,23.6z M12,1.4 C6.1,1.4,1.4,6.1,1.4,12S6.1,22.6,12,22.6c5.9,0,10.6-4.8,10.6-10.6S17.9,1.4,12,1.4z"></path> </g> <g> <g> <path d="M16.5,9.1H7.5C7.3,9.1,7,8.9,7,8.6s0.2-0.5,0.5-0.5h8.9c0.3,0,0.5,0.2,0.5,0.5S16.7,9.1,16.5,9.1z"></path> </g> <g> <path d="M16.5,12.5H7.5C7.3,12.5,7,12.3,7,12s0.2-0.5,0.5-0.5h8.9c0.3,0,0.5,0.2,0.5,0.5S16.7,12.5,16.5,12.5z"></path> </g> <g> <path d="M16.5,15.9H7.5c-0.3,0-0.5-0.2-0.5-0.5s0.2-0.5,0.5-0.5h8.9c0.3,0,0.5,0.2,0.5,0.5S16.7,15.9,16.5,15.9z"></path> </g> </g> </g> </svg>