<svg width="61" height="62" xmlns="http://www.w3.org/2000/svg"><g fill="#FFF" fill-rule="evenodd"><path d="M20.43 40.82a1.471 1.471 0 0 1 0-2.081L38.49 20.68a1.471 1.471 0 0 1 2.08 2.08L22.511 40.82a1.471 1.471 0 0 1-2.08 0z"/><path d="M38.489 40.82L20.43 22.76a1.471 1.471 0 0 1 2.08-2.08l18.06 18.059a1.471 1.471 0 0 1-2.08 2.08z"/><path d="M30.479 2.876c-15.362 0-27.855 12.505-27.855 27.873 0 15.37 12.493 27.875 27.855 27.875 15.383 0 27.897-12.505 27.897-27.875 0-15.368-12.514-27.873-27.897-27.873m0 58.374C13.674 61.25 0 47.568 0 30.749 0 13.932 13.674.25 30.479.25 47.307.25 61 13.932 61 30.749c0 16.82-13.693 30.501-30.521 30.501"/></g></svg>