<svg xmlns="http://www.w3.org/2000/svg" xmlns:xlink="http://www.w3.org/1999/xlink" width="33.75" height="33.34" viewBox="0 0 33.75 33.34"><defs><path id="yeyna" d="M319.57 396.63c-1.92 0-4.42-.72-8.16-2.3-4.8-2.1-9.57-6.5-13.36-12.29l-.14-.21c-1.24-1.83-3.34-5.4-3.34-9.24 0-4.44 2.1-6.77 3-7.79a5.39 5.39 0 0 1 3.92-1.51l.72.02.24.02c1.32.06 2.32.45 3.11 2.39l.7 1.81c.96 2.45 1.48 3.8 1.57 4 .52 1.08.52 2.15.1 2.99-.3.68-.63 1.13-.99 1.52-.24.34-.43.5-.58.69-.23.25-.37.47-.56.62.7 1.27 1.97 3.19 3.64 4.72a16.86 16.86 0 0 0 5.29 3.46l.24.12h.02c.42-.46.94-1.27 1.49-2.05l.29-.4a3 3 0 0 1 3.8-1.21c.69.2 3.6 1.72 5.27 2.62l.44.23c.67.31 1.33.7 1.73 1.38.69 1.35.1 4.04-.33 5.27-.84 2.49-3.8 4.4-6.26 4.98-.5.13-1.08.16-1.85.16zm-18.08-31.84c-1.18 0-2.21.37-2.9 1.1-.76.88-2.64 2.85-2.64 6.7 0 3.36 1.95 6.72 3.14 8.35l.1.24c3.66 5.6 8.18 9.8 12.75 11.78 3.57 1.55 5.9 2.26 7.63 2.26.61 0 1.11-.1 1.55-.21 2.06-.5 4.6-2.1 5.25-4 .59-1.79.66-3.5.4-4.07-.16-.28-.5-.5-1.07-.73l-.47-.27c-2.79-1.46-4.7-2.45-5.11-2.55-.99-.42-1.67-.11-2.22.7l-.3.4c-.6.94-1.18 1.74-1.68 2.36-.35.34-.96.43-1.47.18l-.23-.11a18.3 18.3 0 0 1-5.71-3.72 22.63 22.63 0 0 1-4.16-5.5c-.11-.23-.13-.46-.04-.65.08-.18.16-.35.38-.53.2-.3.38-.56.59-.7.19-.27.36-.47.5-.66.4-.48.63-.7.88-1.3.32-.65.1-1.25-.1-1.69l-1.6-4.09-.7-1.81c-.5-1.32-.98-1.48-1.88-1.48h-.25z"/><path id="yeynb" d="M315.22 375.93l-.97-1.03 1.23-1.19.98 1.04z"/><path id="yeync" d="M313.02 378.32l-.98-1.08 1.2-1.24 1 1.12z"/><path id="yeynd" d="M317.56 373.2c-.16 0-.37-.08-.48-.15a.86.86 0 0 1 0-1.1l3.88-4.09c.27-.3.73-.3 1 0 .27.33.27.78 0 1.09l-3.88 4.1c-.15.07-.31.15-.52.15"/><path id="yeyne" d="M322.32 374.63h-1.43v-5.68h-5.35v-1.42h6.78z"/></defs><g><g transform="translate(-294.57 -363.29)"><g><use fill="#fff" xlink:href="#yeyna"/></g><g><use fill="#fff" xlink:href="#yeynb"/></g><g><use fill="#fff" xlink:href="#yeync"/></g><g><use fill="#fff" xlink:href="#yeynd"/></g><g><use fill="#fff" xlink:href="#yeyne"/></g></g></g></svg>