<svg width="61" height="61" xmlns="http://www.w3.org/2000/svg"><g fill="#004152" fill-rule="evenodd"><path d="M30.29 2.617c-15.259 0-27.667 12.421-27.667 27.692 0 15.255 12.408 27.667 27.666 27.667 15.266 0 27.687-12.412 27.687-27.667 0-15.27-12.421-27.692-27.687-27.692m0 57.965C13.598 60.582.016 47.001.016 30.31.016 13.602 13.598.01 30.289.01c16.705 0 30.294 13.593 30.294 30.3 0 16.692-13.59 30.273-30.294 30.273"/><path d="M24.098 25.843l7.067 7.05 7.036-7.047a1.302 1.302 0 0 1 1.842-.002c.509.509.51 1.333.001 1.842L31.17 36.58l-8.914-8.89a1.305 1.305 0 0 1 1.843-1.845z"/></g></svg>