<svg xmlns="http://www.w3.org/2000/svg" xmlns:xlink="http://www.w3.org/1999/xlink" width="44" height="45"><defs><path id="a" d="M1203.55 65.21c-.71 0-1.37-.26-1.82-.8l-2.5-2.54a2.61 2.61 0 0 1-.86-1.97c0-.72.26-1.45.86-1.94l7.77-7.89c.95-1.07 2.75-1.07 3.8 0l2.5 2.53c.6.53.79 1.2.79 1.92 0 .78-.19 1.45-.8 1.98l-7.8 7.91c-.45.54-1.1.8-1.94.8m5.3-14.15c-.14 0-.4.11-.6.31l-7.8 7.9c-.2.14-.32.41-.32.63 0 .24.11.47.3.67l2.51 2.54c.4.34.95.33 1.35 0l7.8-7.91c.08-.2.17-.4.17-.69 0-.2-.09-.47-.17-.6l-2.5-2.54c-.2-.2-.46-.3-.74-.3"/><path id="b" d="M1225.79 48.68c-3.03 0-5.84-1.22-7.85-3.32a11.3 11.3 0 0 1 0-15.85 10.58 10.58 0 0 1 7.85-3.32c2.87 0 5.69 1.15 7.84 3.32a11.45 11.45 0 0 1 3.21 7.9c0 3.05-1.2 5.84-3.21 7.95a11.29 11.29 0 0 1-7.84 3.32m0-20.63c-2.46 0-4.89 1-6.64 2.77a9.58 9.58 0 0 0 0 13.23 9.36 9.36 0 0 0 6.64 2.77c2.45 0 4.73-.99 6.49-2.77a9.35 9.35 0 0 0 0-13.23 9.06 9.06 0 0 0-6.5-2.77"/><path id="c" d="M1225.8 53.78c-3.45 0-6.79-1.09-9.57-3.19l-1.5 1.6c-.4.34-.93.34-1.35 0l-2.1-2.2a.84.84 0 0 1 0-1.31l1.5-1.59a16.4 16.4 0 0 1 1.57-21.2c3-3.1 7.13-4.8 11.44-4.8 4.3 0 8.32 1.7 11.4 4.79a16.65 16.65 0 0 1 0 23.12 15.96 15.96 0 0 1-11.4 4.78m-9.65-5.33c.24 0 .35.08.53.25a14.48 14.48 0 0 0 9.12 3.23 14.1 14.1 0 0 0 10.08-4.23 14.58 14.58 0 0 0 0-20.52 14.12 14.12 0 0 0-10.08-4.23c-3.88 0-7.5 1.47-10.17 4.23a14.55 14.55 0 0 0-.9 19.4c.2.42.17.9-.07 1.29l-1.55 1.43.89.9 1.55-1.44c.08-.2.33-.3.6-.3"/></defs><use fill="#fff" xlink:href="#a" opacity=".74" transform="translate(-1199 -21)"/><use fill="#fff" xlink:href="#b" opacity=".74" transform="translate(-1199 -21)"/><use fill="#fff" xlink:href="#c" opacity=".74" transform="translate(-1199 -21)"/></svg>