<svg xmlns="http://www.w3.org/2000/svg" xmlns:xlink="http://www.w3.org/1999/xlink" width="38.14" height="38.14" viewBox="0 0 38.14 38.14"><defs><path id="4zela" d="M38.18 37.04c.13.29.06.63-.16.84a.8.8 0 0 1-.58.26.7.7 0 0 1-.3-.07l-7.45-3.12a18.87 18.87 0 0 1-10.5 3.2A19.13 19.13 0 0 1 .1 19.04a19.06 19.06 0 1 1 35 10.5zM14.13 20.26a1.2 1.2 0 0 0 1.17-1.2c0-.66-.51-1.18-1.17-1.18-.69 0-1.2.52-1.2 1.17 0 .66.51 1.21 1.2 1.21zm5.06 0a1.2 1.2 0 0 0 1.17-1.2c0-.66-.52-1.18-1.17-1.18-.7 0-1.2.52-1.2 1.17 0 .66.5 1.21 1.2 1.21zm5.06 0a1.2 1.2 0 0 0 1.17-1.2c0-.66-.52-1.18-1.17-1.18-.69 0-1.21.52-1.21 1.17 0 .66.52 1.21 1.21 1.21z"/></defs><g><g transform="translate(-.1)"><use fill="#fff" xlink:href="#4zela"/></g></g></svg>