<svg xmlns="http://www.w3.org/2000/svg" xmlns:xlink="http://www.w3.org/1999/xlink" width="39.54" height="33.15" viewBox="0 0 39.54 33.15"><defs><path id="nesia" d="M1250.72 4069.82a16.5 16.5 0 0 1-4.67 1.33 8.28 8.28 0 0 0 3.57-4.63 15.9 15.9 0 0 1-5.14 2.03 8 8 0 0 0-5.93-2.65 8.24 8.24 0 0 0-8.1 8.37c0 .66.06 1.3.2 1.9a22.72 22.72 0 0 1-16.72-8.75 8.63 8.63 0 0 0-1.1 4.23c0 2.9 1.44 5.47 3.6 6.95a7.82 7.82 0 0 1-3.67-1.03v.1a8.34 8.34 0 0 0 6.5 8.21 7.85 7.85 0 0 1-3.66.14 8.22 8.22 0 0 0 7.57 5.82 15.97 15.97 0 0 1-11.99 3.46 22.31 22.31 0 0 0 12.44 3.75c14.91 0 23.07-12.75 23.07-23.8 0-.37-.02-.73-.03-1.08a16.47 16.47 0 0 0 4.06-4.35"/></defs><g><g clip-path="url(#clip-27C4EEBF-3A1A-4341-968F-90B641C1539B)" opacity=".94" transform="translate(-1211.18 -4065.9)"><use fill="#fff" xlink:href="#nesia"/></g></g></svg>