<svg id="campleaders_logo" data-name="Layer 1" xmlns="http://www.w3.org/2000/svg" viewBox="0 0 272.08 114.37"><defs><style>.cls-1,.cls-2{fill:#fff;}.cls-1{fill-rule:evenodd;}</style></defs><title>campleaders</title><path class="cls-1" d="M40.16,115.83a3.78,3.78,0,0,1,1.6-1.19,5.43,5.43,0,0,1,2-.35,4.51,4.51,0,0,1,4.67,4.07H55a9.7,9.7,0,0,0-3.29-6.94,11.7,11.7,0,0,0-7.9-2.55,14.24,14.24,0,0,0-4.76.76,9.39,9.39,0,0,0-3.66,2.31,10.65,10.65,0,0,0-2.36,4,17.29,17.29,0,0,0-.85,5.72,18.56,18.56,0,0,0,.82,5.81,11.11,11.11,0,0,0,2.36,4.15,10,10,0,0,0,3.61,2.5,12.2,12.2,0,0,0,4.62.84,12.68,12.68,0,0,0,4.18-.68,10.93,10.93,0,0,0,3.48-2,10.31,10.31,0,0,0,2.47-3,11.14,11.14,0,0,0,1.22-3.93H48.33a4.28,4.28,0,0,1-1.58,3.07,5.14,5.14,0,0,1-3.26,1.06,4.19,4.19,0,0,1-3.37-2q-1.47-2-1.47-6a12.15,12.15,0,0,1,.41-3.39A6.38,6.38,0,0,1,40.16,115.83Z" transform="translate(-24.21 -31.6)"/><path class="cls-1" d="M67.53,108.86q-5.54,0-8,2.31a9.38,9.38,0,0,0-2.82,6.43h6.25a4.09,4.09,0,0,1,1.39-2.69,4.3,4.3,0,0,1,2.91-1,6,6,0,0,1,2.88.71,2.27,2.27,0,0,1,1.3,2.12,1.84,1.84,0,0,1-1.11,1.68,9.31,9.31,0,0,1-3.07.87q-2.44.33-4.54.76a12.3,12.3,0,0,0-3.61,1.3,6.12,6.12,0,0,0-2.36,2.39,8.39,8.39,0,0,0-.84,4.07,6.23,6.23,0,0,0,2.25,5.1,9.18,9.18,0,0,0,6,1.84,14.13,14.13,0,0,0,4.4-.62,7.37,7.37,0,0,0,3.1-1.87,8.43,8.43,0,0,0,.16,1.08q.11.49.22.92h6.08V118.62q0-4.77-2.63-7.27T67.53,108.86ZM71.14,127a5.07,5.07,0,0,1-1.39,1.79,5.89,5.89,0,0,1-2,1.06,8.29,8.29,0,0,1-2.42.35q-2.93,0-2.93-2.77A2.91,2.91,0,0,1,63.56,125a12.09,12.09,0,0,1,4.56-1.55,8,8,0,0,0,3.42-1.3q.05.43.08,1.19t0,1.19A5.75,5.75,0,0,1,71.14,127Z" transform="translate(-24.21 -31.6)"/><path class="cls-1" d="M112.91,111.27a8.18,8.18,0,0,0-2.69-1.76,8.87,8.87,0,0,0-3.42-.65,6.86,6.86,0,0,0-6.68,4,9.56,9.56,0,0,0-2.91-3.07,7.73,7.73,0,0,0-4-.9,9,9,0,0,0-4.21.92,7.42,7.42,0,0,0-3,3.36v-3.64H79.86v24.74h6.52v-15q0-4.83,4-4.83a3.88,3.88,0,0,1,3,1q.9,1,.9,4v14.87h6.52V119.49a5.84,5.84,0,0,1,1.19-3.77,3.68,3.68,0,0,1,3-1.49,3.35,3.35,0,0,1,2.8,1.38,5.87,5.87,0,0,1,1.06,3.66v15h6.41V117.1a8.35,8.35,0,0,0-.62-3.2A8,8,0,0,0,112.91,111.27Z" transform="translate(-24.21 -31.6)"/><path class="cls-1" d="M138.42,112.87a10.08,10.08,0,0,0-3.36-2.93,9.76,9.76,0,0,0-4.71-1.08,9,9,0,0,0-4.28.9,6.28,6.28,0,0,0-2.65,2.85v-3.09h-6.36V146h6.52V131.19a6.26,6.26,0,0,0,3.06,2.85,10.55,10.55,0,0,0,4.25.86,9.55,9.55,0,0,0,4.33-.95,9.07,9.07,0,0,0,3.19-2.66,12.24,12.24,0,0,0,2-4,18.44,18.44,0,0,0,.68-5.15,18.94,18.94,0,0,0-.65-5A12.72,12.72,0,0,0,138.42,112.87Zm-5.65,14.67a4.91,4.91,0,0,1-8,.11,8.16,8.16,0,0,1-1.54-5.15q0-8.06,5.46-8.06,5.62,0,5.62,7.68A8.81,8.81,0,0,1,132.77,127.54Z" transform="translate(-24.21 -31.6)"/><rect class="cls-2" x="128.95" y="68.9" width="6.52" height="33.75"/><path class="cls-1" d="M172.88,108.86q-5.76,0-8.85,3.42t-3.1,9.17q0,13.46,12.38,13.46a11.44,11.44,0,0,0,6.84-2.06,10.74,10.74,0,0,0,4-5.86h-6.74a3.47,3.47,0,0,1-1.63,2,5.41,5.41,0,0,1-2.82.74,5,5,0,0,1-3.91-1.67,7.1,7.1,0,0,1-1.63-4.41h17.06Q184.51,108.86,172.88,108.86Zm-5.21,10.63a6.19,6.19,0,0,1,1.63-4,4.66,4.66,0,0,1,3.42-1.41,5,5,0,0,1,3.45,1.33,5.52,5.52,0,0,1,1.6,4.1Z" transform="translate(-24.21 -31.6)"/><path class="cls-1" d="M196.73,108.86q-5.54,0-8,2.31a9.38,9.38,0,0,0-2.82,6.43h6.25a4.09,4.09,0,0,1,1.39-2.69,4.3,4.3,0,0,1,2.91-1,6,6,0,0,1,2.88.71,2.27,2.27,0,0,1,1.3,2.12,1.84,1.84,0,0,1-1.11,1.68,9.31,9.31,0,0,1-3.07.87q-2.44.33-4.54.76a12.3,12.3,0,0,0-3.61,1.3,6.12,6.12,0,0,0-2.36,2.39,8.4,8.4,0,0,0-.84,4.07,6.23,6.23,0,0,0,2.25,5.1,9.18,9.18,0,0,0,6,1.84,14.13,14.13,0,0,0,4.4-.62,7.37,7.37,0,0,0,3.1-1.87,8.36,8.36,0,0,0,.16,1.08q.11.49.22.92h6.08V118.62q0-4.77-2.63-7.27T196.73,108.86ZM200.34,127a5.07,5.07,0,0,1-1.38,1.79,5.89,5.89,0,0,1-2,1.06,8.3,8.3,0,0,1-2.42.35q-2.93,0-2.93-2.77a2.91,2.91,0,0,1,1.2-2.47,12.09,12.09,0,0,1,4.56-1.55,8,8,0,0,0,3.42-1.3q.05.43.08,1.19t0,1.19A5.75,5.75,0,0,1,200.34,127Z" transform="translate(-24.21 -31.6)"/><path class="cls-1" d="M226,112.76a8.4,8.4,0,0,0-7.22-3.91,9.28,9.28,0,0,0-7.52,3.58,11.94,11.94,0,0,0-2,4,18,18,0,0,0-.71,5.18,18.54,18.54,0,0,0,.68,5.1,13.1,13.1,0,0,0,2,4.2,9.66,9.66,0,0,0,3.34,2.88,10,10,0,0,0,4.73,1.06,7.44,7.44,0,0,0,6.84-3.69l.11,3h6.3V100.5H226Zm-.08,12.51a6.85,6.85,0,0,1-1.17,2.22A5.34,5.34,0,0,1,223,129a4.91,4.91,0,0,1-2.23.52,4.78,4.78,0,0,1-4-2,8.7,8.7,0,0,1-1.52-5.34q0-7.65,5.59-7.65t5.54,8A9.14,9.14,0,0,1,225.92,125.27Z" transform="translate(-24.21 -31.6)"/><path class="cls-1" d="M245.72,108.86q-5.76,0-8.85,3.42t-3.1,9.17q0,13.46,12.38,13.46a11.44,11.44,0,0,0,6.84-2.06,10.74,10.74,0,0,0,4-5.86h-6.74a3.47,3.47,0,0,1-1.63,2,5.41,5.41,0,0,1-2.82.74,5,5,0,0,1-3.91-1.67,7.1,7.1,0,0,1-1.63-4.41h17.06Q257.35,108.86,245.72,108.86Zm-5.21,10.63a6.19,6.19,0,0,1,1.63-4,4.66,4.66,0,0,1,3.42-1.41,5,5,0,0,1,3.45,1.33,5.52,5.52,0,0,1,1.6,4.1Z" transform="translate(-24.21 -31.6)"/><path class="cls-1" d="M272.88,108.91H272q-1,0-2,.08a6.37,6.37,0,0,0-1.9.46,7.21,7.21,0,0,0-1.79,1.09,8.42,8.42,0,0,0-1.68,2v-3h-6.14v24.74h6.52V121.39q0-6,6-6a10.31,10.31,0,0,1,1.79.16Z" transform="translate(-24.21 -31.6)"/><path class="cls-1" d="M291.39,120.52a46.7,46.7,0,0,0-7.5-2.06q-4-.81-4-2.28a2,2,0,0,1,1.17-1.76,5.37,5.37,0,0,1,2.74-.68q3.91,0,4.4,3.26h6.46a8,8,0,0,0-1-3.39,8.44,8.44,0,0,0-2.23-2.63,10.27,10.27,0,0,0-3.29-1.68,13.55,13.55,0,0,0-4.07-.6,14,14,0,0,0-4.7.71,9.79,9.79,0,0,0-3.29,1.87,7.62,7.62,0,0,0-2,2.69,7.9,7.9,0,0,0-.65,3.15,6.12,6.12,0,0,0,4,5.86,45.9,45.9,0,0,0,7.39,2.12,9,9,0,0,1,3,1.09q1,.65,1,1.3a2.15,2.15,0,0,1-1.33,1.87,6.5,6.5,0,0,1-3.18.73,6,6,0,0,1-3.64-1,3.22,3.22,0,0,1-1.36-2.74h-6.74a7.39,7.39,0,0,0,1,3.55,8.76,8.76,0,0,0,2.5,2.74,12,12,0,0,0,3.72,1.76,16.39,16.39,0,0,0,4.59.62,13.09,13.09,0,0,0,8-2.22,7.53,7.53,0,0,0,3-6.46Q295.35,122.47,291.39,120.52Z" transform="translate(-24.21 -31.6)"/><path class="cls-1" d="M211.92,79c9.51-3.8,19-7.77,29.18-11.32,9.68-3.39,21.65-6.9,34.34-5.46,8.18.93,13.64,4.66,19.16,8.44.54-.94,1.14-2.06,1.69-3.08a73.88,73.88,0,0,0-9.63-5.86c-.57-.26-3.37-1.09-3.57-1.59s.08-1.35.2-2.38a63,63,0,0,0-15-6.75,49.89,49.89,0,0,0-19.55-1.09,65.4,65.4,0,0,0-17.07,4.76c-5.25,2.21-10.33,4.46-15.19,6.65-15,6.76-29.76,14.06-46.06,19.46-5.56,1.84-11.3,3.67-17.77,4.07-11.27.69-13-8.58-13.5-18.56-.28-6.08,0-12.34-2.58-16.28-1.34-2.07-4.3-3.16-7.44-3.18a55.63,55.63,0,0,0-13.8,2C102.74,51.89,86.17,58.95,79,62.06l4.28-3.46c2-1.3,6.09-2.75,8.41-3.65,6.93-2.68,13.54-5.19,20.85-7.74,6.9-2.41,14.05-5,22.14-6.35,2.38-.4,6.85-1,8.64-.1,2.12,1.11,1.8,5.12,1.39,7.84-.82,5.43-2.36,11.21-2.38,16.78,0,10.11,3.72,16.32,14.39,15.39,5.33-.47,10.66-2.6,15.29-4.37,14.5-5.55,26.18-13.06,39-20.15,4-2.19,8.11-4.83,12.51-7.15,6.58-3.47,13.17-6.92,22.93-6.65,7.75.22,14,2.94,19.36,5.36a16.25,16.25,0,0,0,3.47,1.29,9.71,9.71,0,0,1-.89-2.18c-7.94-3.33-14.23-6.58-24.22-7.15a39.35,39.35,0,0,0-9.63,1,37.82,37.82,0,0,0-8,2.58c-5,2.21-9.57,4.85-14,7.25-9.64,5.22-18.55,10.15-27.89,14.59-6.69,3.18-14.61,7-23.13,8.74-2.91.6-6.62,1.13-9.43.2-8.42-2.79-5.66-16.06-4.57-24.72.34-2.68,1-6.89-.3-9.33-1-1.84-3.36-2.3-6.15-2.28A43.42,43.42,0,0,0,132.8,39c-2.64.54-5.24,1.18-7.64,1.89-12.41,3.66-23.48,8-35.14,12.21-2.06.75-5,1.91-7,2.4a13.22,13.22,0,0,1-3.11.27l-2-.06h0L63.21,55.2a.07.07,0,0,1-.07,0L55.4,31.65a.07.07,0,0,0-.14,0l-7.74,23.5a.07.07,0,0,1-.07,0l-23.18.73a.07.07,0,0,0,0,.13L42.64,71a.07.07,0,0,1,0,.07l-6,22.48a.07.07,0,0,0,.11.08L55.3,81a.07.07,0,0,1,.08,0L73.86,93.58A.07.07,0,0,0,74,93.5L69.06,75a12.12,12.12,0,0,1,3-1.85c7.17-3.31,14.14-6.19,21.45-8.89a101.52,101.52,0,0,1,13.73-3.86,51.9,51.9,0,0,1,7.44-1.29c2.8-.2,6-.32,8.14.5,4,1.52,5.15,6.49,6.25,11.22,1,4.38,1.78,8.74,2.78,12.41,2.41,8.83,7.38,15.11,18.17,15.09h.2c12.09-.88,22.54-4.44,32.46-8S202.09,82.9,211.92,79ZM166.25,91.18c-5.5,1.47-11.64,3.2-18.46,2.78-.26,0-.57-.06-.79-.1C132.26,91.47,136,71,129.43,60.5c-2.23-3.54-5.58-5.28-11.61-5.26a56.88,56.88,0,0,0-14.19,2.28C90.67,60.9,79.41,66.08,68,71A36.2,36.2,0,0,1,78.2,64.81,327.06,327.06,0,0,1,111,53.06,63.19,63.19,0,0,1,126.35,50c3.26-.15,6.09.41,7.35,2.38,1.51,2.38,1.78,7.49,1.79,11.12,0,5.78.22,11.19,1.59,15.68,1.85,6.1,5.67,10.58,13.6,10.72a42.08,42.08,0,0,0,9.73-1.29,137,137,0,0,0,24.42-8.34c10.41-4.46,20-9,30.08-13.7,4.86-2.26,9.88-4.63,15.09-6.85A101,101,0,0,1,246.06,54c5.72-1.37,13.47-2,19.85-.69a45.1,45.1,0,0,1,15.29,6.35c-13-3.11-26.74-.49-37,2.88-21.59,7.08-40.4,16-61.74,23.53C177.25,87.84,171.91,89.66,166.25,91.18Z" transform="translate(-24.21 -31.6)"/></svg>