<svg xmlns="http://www.w3.org/2000/svg" viewBox="0 0 152.26 191.39"><defs><style>.cls-1,.cls-2{fill:#fff;}.cls-1{fill-rule:evenodd;}</style></defs><title>Asset 1</title><g id="Layer_2" data-name="Layer 2"><g id="Layer_1-2" data-name="Layer 1"><path class="cls-1" d="M108.3,11.72l-2.44-1.36-.12,1.19-3.69-.36.1-4a47.69,47.69,0,0,0-49.49-.5l6.18.11H73.49l-2-3.09,5.83,1L78.61,6.9l2.86-3.45h.71L86,6.55l2.86-2.74,5.36,2L94.08,9.4l-3.69-.83-2.26-1.9-2.38,3-6.07.24-3.57,3.45L79.68,17l3.09-1.9,3.09-3.93,4.76,1.55,2.74,2.62L94,18.92l-5.12.83-.12,3.81-5.24,1.9-4.64,3.45-4.17,3.81-1.19,5.83L70.76,36.3l-4.88-.6L61,38.2,59.57,43.8l4.76.36,1.31,2.38,3.57,3,5.47-1.79L80.4,48.8l4.52,3.69,4.28,3L93.37,59l5.24,2.14L99.2,67l-1.07,5.36L88,86.76l-3.45,3.45-3,4.17-3.81-1.07-2.26-4.88V76.29l-3.33-4-3.81-4.4-3-5.24L67.54,51.3l-5.47-2.86-4.88-1.67-2.62-4.17-2-4.4L49,35.59l-1.67-5.36L50,24.52l1.19-5.24V13.81l-4.64.36-5.8,2.5a47.67,47.67,0,1,0,67.5-4.95Z"/><path class="cls-2" d="M.13,144.07v-7.34H4.46c.66,2.36,2.1,3.54,4.41,3.54,1.75,0,2.84-.87,2.84-2,0-1.53-1.79-1.88-5.38-2.75-4.41-1-6.34-2.14-6.34-6.21,0-3.76,2.8-6.21,7.39-6.21a6.19,6.19,0,0,1,5.42,2.58v-2.05H17v6.56H12.81c-.31-2-1.84-3.23-4.15-3.23-1.66,0-2.67.79-2.67,1.92,0,1.75,2,2,6.07,2.88,3.89.83,5.68,2.58,5.68,6.16,0,3.93-2.84,6.51-7.3,6.51-2.75,0-4.72-1-6-2.93v2.58Z"/><path class="cls-2" d="M20.1,139.87h2.75V127.55H20.1v-3.93h8.35v3.23c1.88-2.58,4-3.76,6.77-3.76,3.19,0,5.64,1.4,6.77,3.76a6.93,6.93,0,0,1,6.64-3.76c5.2,0,7.21,2.45,7.21,7.78v9h2.67v4.06H47.29v-4.06h2.84v-8.39c0-2.8-1.14-4.2-3.45-4.2s-4.37,2.1-4.37,5.29v7.3h2.75v4.06H33.83v-4.06h2.75v-8.39q0-4.2-3.54-4.2c-2.49,0-4.46,2.1-4.46,5.29v7.3h3.1v4.06H20.1Z"/><path class="cls-2" d="M74.21,143.94v-2.75a7.65,7.65,0,0,1-6.69,3.28c-4.37,0-7.21-2.67-7.21-6.51,0-4.24,3-6.82,8.61-6.82h5.29v-1.57c0-1.49-1.49-2.62-3.93-2.62-2.23,0-3.5,1-3.63,2.93H61.27c.35-4.81,3.1-6.77,8.92-6.77,6.56,0,9.44,2.14,9.44,7.17v9.61h2.53v4.06Zm-2.58-9.18c-3.58,0-5.38,1-5.38,2.8s1.09,2.75,3.06,2.75c2.84,0,4.72-1.92,4.89-5.42C73.25,134.8,72.37,134.76,71.63,134.76Z"/><path class="cls-2" d="M87.15,119.37H84.39v-4h8.52v24.47h2.84v4.06H84.26v-4.06h2.88Z"/><path class="cls-2" d="M100.43,119.37H97.68v-4h8.52v24.47H109v4.06H97.55v-4.06h2.88Z"/><path class="cls-2" d="M131.29,137.6c-1,4.63-4.06,6.86-9.44,6.86-6.82,0-10.71-3.93-10.71-10.66s3.93-10.71,10.27-10.71,10.14,3.71,10.14,10.45c0,.61,0,1.22-.09,1.84H117c0,3.23,1.66,5,4.59,5a4.21,4.21,0,0,0,4.33-2.75Zm-5.46-5.94v-.44a4.07,4.07,0,0,0-4.37-4.11,4.26,4.26,0,0,0-4.41,4.55Z"/><path class="cls-2" d="M137,127.55h-2.75v-3.93h8.48v3.67c1.57-2.93,3.58-4.33,6.29-4.33a11.66,11.66,0,0,1,2.36.31v4.81a14.86,14.86,0,0,0-2.32-.17c-4.37,0-6.34,2.45-6.34,7.69v4.28h2.88v4.06H134.13v-4.06H137Z"/><path class="cls-2" d="M2.07,173.43v.81c0,9.83,5,15.45,13.38,15.45,6.43,0,10.57-3,11.53-8.5H28.9c-.81,6.36-5.69,10.2-13.45,10.2C5.77,191.39,0,185,0,174s6.13-17.59,15.3-17.59,14.49,5.77,14.49,15.82v1.18ZM28,171.88v-.22c0-8.8-4.73-13.75-12.57-13.75s-12.94,5-13.38,14Z"/><path class="cls-2" d="M58.91,183.56c-2.07,5-6.58,7.76-12.79,7.76-7.47,0-12-3.84-12-9.61,0-7.17,5.17-11,15.52-11h9.24V166c0-5.1-3.7-8.2-10.2-8.2s-10.13,2.81-11.31,8.57H35.77c1.33-7,5.25-10,12.93-10,7.39,0,12,3.77,12,9.83v22.54h5.54v1.55H58.91ZM50,172.18c-9.39,0-14,2.88-14,9.17,0,5.1,3.84,8.43,10.2,8.43,8,0,12.71-4.58,12.71-13.38v-4.21Z"/><path class="cls-2" d="M74.8,158.65H68.89v-1.48H76.5v5.1c2.22-4.07,5.25-6,9.68-6,.67,0,1.77.07,3.4.22v1.7a27.7,27.7,0,0,0-3.55-.3c-6,0-9.53,4-9.53,11.6v19.29h5.62v1.55H69.18v-1.55H74.8Z"/><path class="cls-2" d="M104.51,189.55c3.47,0,5.62-2.66,5.62-7.47v-.22h1.48v.52c0,5.77-2.59,8.87-7,8.87-5.84,0-6.21-4.29-6.21-11.09V158.65H91.8v-1.48h6.58v-8l1.7-.59v8.57h11v1.48h-11v26C100.08,187.7,101.71,189.55,104.51,189.55Z"/><path class="cls-2" d="M115.75,188.81h5.54V144.46L118.13,143V141.5l4.94,1.48v20.7c2.37-4.8,6.65-7.39,12.34-7.39,7.32,0,11.23,4.21,11.23,12.64v19.88h5.62v1.55h-13.6v-1.55h6.21V168.92c0-7.61-3.1-11.23-9.83-11.23s-12,4.66-12,11.23v19.88h6.28v1.55h-13.6Z"/></g></g></svg>